# xmcd
#
# Track frame offsets:
#	150
#	12261
#	21557
#	31840
#	41640
#	54125
#	68390
#	80151
#	91107
#	102980
#	114556
#	122720
#	132671
#	141800
#	151585
#	162126
#	173182
#	186738
#	196738
#	207745
#
# Disc length: 2920 seconds
# Revision: 0
# Processed by: cddbd v1.5.2PL0 Copyright (c) Steve Scherf et al.
# Submitted via: dBpowerAMP V12.0
#
DISCID=110b6614
DTITLE=Various Artist - Still Alive And Rockin'
DYEAR=1955
DGENRE=Country
TTITLE0=Perry Como - Don't Let The Stars Get In Your Eyes
TTITLE1=Elvis Presley - I Need Your Love Tonight
TTITLE2=Perez Prado - Why wait
TTITLE3=Gene Vincent - Say Mama
TTITLE4=Teresa Brewer - Hula Hoop
TTITLE5=Lavern Baker - Tweedle Dee
TTITLE6=Perry Como - Moontalk
TTITLE7=Bobby Darin - Bullmoose
TTITLE8=Jim Reeves - Mexican Joe
TTITLE9=Bill Haley and Comets - Lean Jeans
TTITLE10=Buddy Holly - Rave On
TTITLE11=Billy Vaughn - Raunchy
TTITLE12=Roy Orbison - Almost Eighteen
TTITLE13=Clyde McPhatter - Treasure Og Love
TTITLE14=Eddie Cochran - Jeannie Jeannie
TTITLE15=Guy Mitchell - Singing The Blues
TTITLE16=Larry Williams - Bony Maronie
TTITLE17=Johnny Cash - Get Rhythm
TTITLE18=Louis Prima - Oh Marie
TTITLE19=Elvis Presley - One Night
EXTD=
EXTT0=
EXTT1=
EXTT2=
EXTT3=
EXTT4=
EXTT5=
EXTT6=
EXTT7=
EXTT8=
EXTT9=
EXTT10=
EXTT11=
EXTT12=
EXTT13=
EXTT14=
EXTT15=
EXTT16=
EXTT17=
EXTT18=
EXTT19=
PLAYORDER=
